HIERARCHY
ROOT root
{
	OFFSET	0	13.1	24.9
	CHANNELS 6  Xposition Yposition Zposition Xrotation Yrotation Zrotation
	JOINT spine_1
	{
		OFFSET	0	9.99999	0
		CHANNELS 3  Xrotation Yrotation Zrotation
		JOINT spine_2
		{
			OFFSET	0	112	-10
			CHANNELS 3  Xrotation Yrotation Zrotation
			JOINT spine_3
			{
				OFFSET	0	206.5	19.3
				CHANNELS 3  Xrotation Yrotation Zrotation
				JOINT spine_4
				{
					OFFSET	0	110.4	14.6
					CHANNELS 3  Xrotation Yrotation Zrotation
					JOINT neck_1
					{
						OFFSET	0	71.8	-50.3
						CHANNELS 3  Xrotation Yrotation Zrotation
						JOINT neck_2
						{
							OFFSET	0	86.2	-25.8
							CHANNELS 3  Xrotation Yrotation Zrotation
							JOINT head_ee
							{
								OFFSET	0	179.8	-8.7
								CHANNELS 3  Xrotation Yrotation Zrotation
								End Site
								{
									OFFSET	1	0	0
								}
							}
						}
					}
					JOINT left_clavicle
					{
						OFFSET	-43.2	22.4	-70.8
						CHANNELS 3  Xrotation Yrotation Zrotation
						JOINT left_shoulder
						{
							OFFSET	-93.9	-5.79999	48.7
							CHANNELS 3  Xrotation Yrotation Zrotation
							JOINT left_elbow
							{
								OFFSET	-291.4	-30.8	15.2
								CHANNELS 3  Xrotation Yrotation Zrotation
								JOINT left_lowarm_twist
								{
									OFFSET	-110.7	-3.89999	13.6
									CHANNELS 3  Xrotation Yrotation Zrotation
									JOINT left_hand
									{
										OFFSET	-110.7	-3.89999	13.6
										CHANNELS 3  Xrotation Yrotation Zrotation
										JOINT left_ee
										{
											OFFSET	-80.8	-5.10001	12.1
											CHANNELS 3  Xrotation Yrotation Zrotation
											End Site
											{
												OFFSET	1	0	0
											}
										}
									}
								}
							}
						}
					}
					JOINT right_clavicle
					{
						OFFSET	43.2	22.4	-70.8
						CHANNELS 3  Xrotation Yrotation Zrotation
						JOINT right_shoulder
						{
							OFFSET	93.9	-5.79999	48.7
							CHANNELS 3  Xrotation Yrotation Zrotation
							JOINT right_elbow
							{
								OFFSET	291.4	-30.8	15.2
								CHANNELS 3  Xrotation Yrotation Zrotation
								JOINT right_lowarm_twist
								{
									OFFSET	110.7	-3.89999	13.6
									CHANNELS 3  Xrotation Yrotation Zrotation
									JOINT right_hand
									{
										OFFSET	110.7	-3.89999	13.6
										CHANNELS 3  Xrotation Yrotation Zrotation
										JOINT right_ee
										{
											OFFSET	80.8	-5.10001	12.1
											CHANNELS 3  Xrotation Yrotation Zrotation
											End Site
											{
												OFFSET	1	0	0
											}
										}
									}
								}
							}
						}
					}
				}
			}
		}
	}
	JOINT left_hip
	{
		OFFSET	-82.8	-127.5	0.300001
		CHANNELS 3  Xrotation Yrotation Zrotation
		JOINT left_knee
		{
			OFFSET	-28.2	-396.7	2.2
			CHANNELS 3  Xrotation Yrotation Zrotation
			JOINT left_ankle
			{
				OFFSET	-11.7	-411.3	35.4
				CHANNELS 3  Xrotation Yrotation Zrotation
				JOINT left_toes
				{
					OFFSET	0	-60	-88.6
					CHANNELS 3  Xrotation Yrotation Zrotation
					JOINT left_foot_ee
					{
						OFFSET	-22.5	-16.5	-42.2
						CHANNELS 3  Xrotation Yrotation Zrotation
						End Site
						{
							OFFSET	1	0	0
						}
					}
				}
			}
		}
	}
	JOINT right_hip
	{
		OFFSET	82.8	-127.5	0.300001
		CHANNELS 3  Xrotation Yrotation Zrotation
		JOINT right_knee
		{
			OFFSET	28.2	-396.7	2.2
			CHANNELS 3  Xrotation Yrotation Zrotation
			JOINT right_ankle
			{
				OFFSET	11.7	-411.3	35.4
				CHANNELS 3  Xrotation Yrotation Zrotation
				JOINT right_toes
				{
					OFFSET	0	-60	-88.6
					CHANNELS 3  Xrotation Yrotation Zrotation
					JOINT right_foot_ee
					{
						OFFSET	22.5	-16.5	-42.2
						CHANNELS 3  Xrotation Yrotation Zrotation
						End Site
						{
							OFFSET	1	0	0
						}
					}
				}
			}
		}
	}
}
MOTION
Frames: 16
Frame Time: 0.02
2856.91 686.604 -399.782 176.658 -52.7748 179.052 -0.499582 0.318124 0.442977 -0.49952 0.289292 0.462322 -0.49707 0.181214 0.514385 -0.497345 0.260177 0.479312 2.44485 4.25208 -4.29155 2.65486 11.0709 -4.44582 -0.0 0.0 -0.0 1.57584 19.0867 4.58311 -19.6364 -30.1765 72.1357 0.482983 -13.4556 0.0569754 -10.7372 -0.4996 1.27664 2.7933 30.0136 27.7248 -0.0 0.0 -0.0 11.6784 21.9951 -23.0422 -0.178091 2.06461 -51.6751 2.62401 52.4195 -1.2919 -9.46152 0.427801 -1.13009 0.798417 3.94267 -3.70754 0.0 0.0 0.0 21.8868 0.174124 -11.033 0.894765 -0.0378777 -0.13208 6.66796 28.6961 -1.02361 -20.0928 0.0 0.0 -0.0 0.0 -0.0 -6.07327 12.185 4.56491 -28.159 -0.110167 -4.27664 36.5441 10.3427 4.72143 14.5091 -0.0 -0.0 0.0 0.0 0.0 
2880.84 686.358 -395.04 177.106 -52.2001 -179.762 -0.445514 0.246656 0.336338 -0.445479 0.224755 0.351352 -0.444035 0.14286 0.391859 -0.444192 0.202954 0.364379 2.8657 3.49365 -3.97357 3.03261 9.4748 -4.18422 -0.0 0.0 -0.0 1.41231 19.279 4.35272 -19.0382 -30.2006 72.1823 0.507893 -14.1224 0.0629127 -10.5145 -0.486828 1.25116 3.12072 29.9514 29.7714 -0.0 0.0 -0.0 12.0079 21.463 -23.8408 -2.99792 1.7434 -51.8964 2.66678 52.8659 -1.32589 -9.19498 0.413213 -1.09927 0.861551 6.27686 -3.15246 0.0 0.0 0.0 21.8018 0.667476 -11.8009 0.00699626 -0.000288087 -0.00103499 6.37894 29.5078 -0.98535 -18.4581 0.0 0.0 -0.0 0.0 -0.0 -6.64644 13.5382 3.70012 -28.2659 -0.106569 -4.29266 37.2809 10.309 4.78981 13.5149 -0.0 -0.0 0.0 0.0 0.0 
2909.83 689.675 -396.808 177.623 -50.9501 -179.387 -0.184037 0.23984 0.226643 -0.184037 0.224932 0.241446 -0.183059 0.168258 0.283865 -0.183109 0.210978 0.25373 3.48064 3.19389 -4.1156 3.64952 9.07357 -4.42004 -0.0 0.0 -0.0 1.58026 18.682 4.56164 -17.4331 -30.3825 72.6447 0.47247 -13.173 0.0545542 -11.2769 -0.530958 1.33816 2.96966 30.187 28.8509 -0.0 0.0 -0.0 11.8203 20.9921 -23.4483 -4.31661 1.56212 -52.565 2.4153 50.1038 -1.12907 -9.09066 0.407544 -1.08719 0.669891 3.98082 -2.82503 0.0 0.0 0.0 22.23 1.08657 -11.5208 -2.48851 0.0944326 0.370199 3.33981 28.7282 -0.517223 -17.0922 0.0 0.0 -0.0 0.0 -0.0 -8.32888 14.763 4.73066 -25.4418 -0.1915 -3.86761 34.9859 8.43282 4.53081 13.0466 -0.0 -0.0 0.0 0.0 0.0 
2932.53 690.12 -392.904 177.926 -50.5119 -178.854 -0.169874 0.185592 0.176992 -0.169873 0.173953 0.188443 -0.169284 0.12981 0.221179 -0.169314 0.163112 0.197902 2.8125 3.37329 -3.43174 2.9487 8.80488 -3.58127 -0.0 0.0 -0.0 1.39163 18.7243 4.28066 -16.9363 -30.5782 71.7057 0.616086 -16.9718 0.0919209 -10.6352 -0.493738 1.26497 3.11527 29.995 29.7429 -0.0 0.0 -0.0 11.7585 20.8974 -23.3143 -7.52845 1.35016 -53.4561 2.45343 50.5445 -1.15841 -8.6756 0.385202 -1.03903 0.906781 7.2556 -3.0437 0.0 0.0 0.0 22.1298 1.48051 -11.653 -3.84626 0.139143 0.573772 1.96641 28.6988 -0.305462 -17.6809 0.0 0.0 -0.0 0.0 -0.0 -9.19305 15.2896 5.01909 -24.9574 -0.203954 -3.79432 35.5197 10.3106 4.62245 11.9195 -0.0 -0.0 0.0 0.0 0.0 
2968.62 692.964 -392.632 175.208 -50.664 178.004 -0.130341 -0.0328168 0.11064 -0.130335 -0.0397906 0.108328 -0.13041 -0.0618917 0.0974044 -0.13042 -0.0457317 0.105957 1.67696 3.28073 -2.21546 1.75522 7.63121 -2.15304 -0.0 0.0 -0.0 2.07321 21.8971 5.47757 -16.3034 -31.3794 69.8379 0.583719 -16.1278 0.0827008 -12.9917 -0.634425 1.53164 2.75433 30.0031 27.4819 -0.0 0.0 -0.0 11.6907 21.8242 -23.0848 -9.45753 0.907943 -53.8231 2.03458 45.2193 -0.847388 -7.23543 0.31041 -0.870713 0.704418 7.5026 -1.57166 0.0 0.0 0.0 20.6016 0.280139 -9.71596 -10.7261 0.290892 1.618 12.3507 28.6729 -1.8637 -15.278 0.0 0.0 -0.0 0.0 -0.0 -12.1814 17.7871 6.49759 -25.1745 -0.198449 -3.82718 33.3708 2.02098 4.27667 11.5564 -0.0 -0.0 0.0 0.0 0.0 
2987.01 702.871 -393.964 175.01 -50.9794 177.918 -0.190427 -0.0347365 -0.110088 -0.190421 -0.0276609 -0.112075 -0.190362 -0.00310419 -0.115396 -0.19038 -0.0212899 -0.113458 2.24754 3.42682 -1.83291 2.3217 7.55412 -1.75657 -0.0 0.0 -0.0 2.35717 21.6004 5.86814 -15.4121 -32.6969 68.2415 0.714769 -19.4978 0.122807 -13.3611 -0.657468 1.57291 2.56049 29.8039 26.2568 -0.0 0.0 -0.0 11.2512 23.5648 -21.9287 -11.1615 1.08283 -54.4032 1.7618 41.1089 -0.660663 -7.55355 0.326565 -0.908052 1.13299 9.62124 -3.56362 0.0 0.0 0.0 20.566 0.224313 -8.7348 -13.1104 0.314092 1.98308 11.9932 26.0365 -1.78246 -15.5532 0.0 0.0 -0.0 0.0 -0.0 -11.3986 17.3852 7.38801 -22.9219 -0.249507 -3.48528 32.7735 5.66328 4.26212 10.1058 -0.0 -0.0 0.0 0.0 0.0 
3011.28 705.166 -390.429 173.145 -53.2581 176.241 -0.158669 -0.311609 -0.3552 -0.158645 -0.288375 -0.374309 -0.15669 -0.202103 -0.427108 -0.156845 -0.267019 -0.38983 0.793074 2.70466 0.39159 0.807904 4.46798 0.68569 -0.0 0.0 -0.0 2.37246 21.4206 5.88223 -13.7603 -32.4821 67.9694 0.774 -20.9776 0.143298 -18.001 -0.96933 2.07821 1.27113 29.4885 18.5938 -0.0 0.0 -0.0 10.6127 23.8043 -20.4616 -13.3707 -0.416871 -56.0165 1.59027 38.2272 -0.551132 -6.33203 0.265666 -0.764203 1.15484 8.90661 -4.01792 0.0 0.0 0.0 19.3964 -4.38958 -6.43686 -17.2193 0.318377 2.61336 20.2118 29.0448 -2.97138 -16.8125 0.0 0.0 -0.0 0.0 -0.0 -10.3075 21.4293 6.22978 -29.7226 -0.0545897 -4.51018 32.7326 0.0562291 4.19508 10.9794 -0.0 -0.0 0.0 0.0 0.0 
3023.99 712.612 -390.339 174.55 -54.0185 177.54 -0.153109 -0.264271 -0.531366 -0.152981 -0.229924 -0.547105 -0.150655 -0.108273 -0.583493 -0.151075 -0.199065 -0.559072 -1.59411 0.660137 2.52384 -1.57495 -0.826299 2.74945 -0.0 0.0 -0.0 1.86358 23.1781 5.25183 -10.1138 -28.7325 68.4497 1.0512 -27.5068 0.257299 -20.7173 -1.17062 2.36189 0.0763564 29.2725 11.8567 -0.0 0.0 -0.0 9.62131 24.1767 -18.2025 -13.2716 -1.69117 -59.3112 1.46205 35.9119 -0.47383 -4.24573 0.168805 -0.515665 0.627449 8.91999 -0.448403 0.0 0.0 0.0 18.5214 -5.72266 -5.71011 -15.2351 0.321952 2.30896 22.2101 29.1292 -3.24027 -20.9848 0.0 0.0 -0.0 0.0 -0.0 -7.59181 29.8934 3.28448 -34.0824 0.133823 -5.15249 33.8098 -7.41323 4.28329 10.3298 -0.0 -0.0 0.0 0.0 0.0 
3038.07 715.723 -393.668 174.009 -53.967 176.723 -0.435748 -0.151337 -0.751591 -0.43544 -0.103206 -0.759697 -0.433854 0.0645571 -0.763952 -0.434664 -0.0569015 -0.76456 -3.28706 0.736245 3.04208 -3.25951 -1.02042 3.2649 -0.0 0.0 -0.0 1.8645 21.8463 5.17848 -10.4053 -33.9653 67.0825 1.23395 -31.4346 0.347263 -22.5331 -1.31261 2.54613 -0.2476 28.8624 9.93847 -0.0 0.0 -0.0 10.0887 24.5808 -19.2085 -16.964 0.461445 -57.2297 1.39995 34.739 -0.437918 -4.15746 0.164908 -0.505074 1.15489 9.25341 -3.86965 0.0 0.0 0.0 17.819 -6.67443 -4.1802 -16.1429 0.321625 2.44823 22.9676 29.4288 -3.34713 -21.0182 0.0 0.0 -0.0 0.0 -0.0 -5.8584 26.8653 4.11496 -36.5856 0.263958 -5.51436 34.1417 -4.13265 4.31588 9.97777 -0.0 -0.0 0.0 0.0 0.0 
3053.22 722.887 -392.919 173.755 -54.5053 176.552 -0.47135 -0.257147 -0.889231 -0.470932 -0.200045 -0.903791 -0.467434 0.00192213 -0.925661 -0.4686 -0.144287 -0.914349 -3.43526 0.264641 3.05307 -3.40544 -1.88053 3.20204 -0.0 0.0 -0.0 1.82181 22.8024 5.17288 -9.02774 -33.1766 66.5712 1.42387 -35.1949 0.45163 -25.0285 -1.51716 2.79186 -0.98141 28.9859 6.00431 -0.0 0.0 -0.0 9.69316 22.4794 -18.5185 -17.334 0.397469 -57.793 1.32475 33.273 -0.395862 -3.58483 0.14002 -0.436227 1.10901 8.91768 -3.70308 0.0 0.0 0.0 16.6365 -7.78255 -3.38235 -15.8726 0.321953 2.40677 25.8124 28.6705 -3.69427 -22.1662 0.0 0.0 -0.0 0.0 -0.0 -3.90354 28.8792 3.03004 -38.4647 0.371995 -5.78216 34.1019 -8.79301 4.31674 9.68385 -0.0 -0.0 0.0 0.0 0.0 
3062.95 727.058 -392.782 173.424 -53.9488 176.304 -0.50908 -0.273609 -1.0475 -0.508493 -0.206403 -1.06278 -0.504198 0.0310944 -1.08219 -0.505804 -0.140198 -1.07352 -3.81509 -0.467482 5.22863 -3.71995 -4.87318 5.32649 -0.0 0.0 -0.0 1.75218 21.8889 5.02158 -8.03023 -34.7088 65.766 1.55691 -37.6385 0.53063 -25.5734 -1.56325 2.84433 -1.40114 28.3143 3.45137 -0.0 0.0 -0.0 9.80447 25.0384 -18.5266 -19.2793 -0.294303 -58.9546 1.21801 31.1043 -0.338991 -3.50253 0.1365 -0.426311 1.17161 9.21587 -3.99887 0.0 0.0 0.0 15.6003 -8.93578 -2.84175 -15.9837 0.321841 2.42381 27.3785 29.1282 -3.90245 -22.7083 0.0 0.0 -0.0 0.0 -0.0 -2.20581 31.2415 2.08573 -38.0063 0.344823 -5.71714 33.9911 -8.32407 4.30394 9.74819 -0.0 -0.0 0.0 0.0 0.0 
3074.11 729.084 -395.001 172.893 -53.9694 176.336 -0.443526 -0.35441 -1.40084 -0.442473 -0.264562 -1.42054 -0.435107 0.0508619 -1.44407 -0.437973 -0.177816 -1.43398 -4.13131 -0.687141 5.84888 -4.01197 -5.72786 5.91249 -0.0 0.0 -0.0 2.1243 21.7713 5.54387 -6.53186 -34.6996 65.7114 1.65955 -39.4201 0.594569 -26.5585 -1.64783 2.93807 -1.75978 28.008 1.36938 -0.0 0.0 -0.0 9.5334 24.7371 -17.9516 -20.8667 -0.318168 -59.3839 1.12201 29.0649 -0.290858 -3.4825 0.135645 -0.423898 1.17217 9.19884 -4.00996 0.0 0.0 0.0 14.7424 -9.61474 -2.40703 -16.2541 0.321433 2.4653 28.7121 28.3645 -4.04396 -23.1155 0.0 0.0 -0.0 0.0 -0.0 0.599084 32.6686 0.0280451 -38.8078 0.392666 -5.83066 33.8531 -9.80758 4.29665 9.61228 -0.0 -0.0 0.0 0.0 0.0 
3082.77 731.259 -393.193 172.792 -52.7234 176.628 -0.296522 -0.352391 -1.55587 -0.29521 -0.252685 -1.57514 -0.287356 0.0919946 -1.59262 -0.29086 -0.160652 -1.58716 -4.2241 -0.829527 6.20818 -4.08899 -6.25581 6.25423 -0.0 0.0 -0.0 1.99182 21.6175 5.34705 -5.41498 -34.6653 64.8183 1.76152 -41.1044 0.66048 -27.2229 -1.70578 3.00047 -2.03667 27.6829 -0.290002 -0.0 0.0 -0.0 9.49698 24.1218 -17.9304 -21.4715 -0.56824 -60.1933 1.08367 28.2269 -0.272477 -3.48987 0.13596 -0.424786 1.15904 9.09083 -3.96746 0.0 0.0 0.0 13.5275 -10.3857 -2.8065 -16.5394 0.320789 2.50907 29.6338 27.5935 -4.13244 -23.4331 0.0 0.0 -0.0 0.0 -0.0 2.15537 33.2924 -1.32278 -39.0414 0.406909 -5.86363 33.4326 -10.4958 4.25822 9.53339 -0.0 -0.0 0.0 0.0 0.0 
3095.34 734.723 -388.687 173.458 -52.3846 177.849 -0.0908903 -0.30659 -1.65918 -0.089381 -0.200406 -1.67532 -0.0826338 0.158622 -1.67979 -0.0865554 -0.108622 -1.68376 -4.10604 -0.662925 6.60766 -3.95478 -6.26679 6.70261 -0.0 0.0 -0.0 2.31867 24.1065 5.91923 -3.8694 -33.0205 63.6103 1.80612 -41.815 0.69001 -27.7078 -1.74853 3.0456 -2.26045 27.7675 -1.46644 -0.0 0.0 -0.0 9.14132 23.3584 -17.21 -22.5196 -2.41386 -61.8821 1.03916 27.2374 -0.251765 -2.97364 0.114219 -0.362477 0.940615 8.32211 -2.81877 0.0 0.0 0.0 12.8635 -11.1269 -2.95643 -16.3568 0.321226 2.48105 31.3294 28.5901 -4.36122 -23.2354 0.0 0.0 -0.0 0.0 -0.0 3.116 33.8931 -3.21577 -39.8485 0.45716 -5.97708 33.0824 -15.2328 4.26587 9.71736 -0.0 -0.0 0.0 0.0 0.0 
3104.04 736.932 -383.286 174.052 -51.2908 178.536 -0.307665 -0.2994 -1.83843 -0.305803 -0.18183 -1.85375 -0.298756 0.221538 -1.84943 -0.303521 -0.0732731 -1.8612 -3.99679 -0.902294 6.97522 -3.82452 -6.99516 7.05532 -0.0 0.0 -0.0 1.94654 21.6365 5.28349 -3.77336 -33.014 63.0564 1.92237 -43.5953 0.768862 -28.6403 -1.83183 3.13136 -2.6245 27.4693 -3.60681 -0.0 0.0 -0.0 9.39484 22.7898 -17.8256 -23.3137 -1.02127 -60.9639 1.00984 26.5758 -0.238498 -3.29077 0.127509 -0.400778 1.15977 8.90607 -4.05158 0.0 0.0 0.0 12.1403 -11.7328 -3.1195 -16.5573 0.320741 2.51181 31.1744 27.8089 -4.31924 -23.7461 0.0 0.0 -0.0 0.0 -0.0 3.5937 34.4752 -2.54566 -38.9425 0.400867 -5.84969 33.0155 -11.6122 4.2233 9.21706 -0.0 -0.0 0.0 0.0 0.0 
3113.77 738.757 -379.006 174.981 -50.8758 179.799 -0.336374 -0.202106 -1.88653 -0.334398 -0.0816739 -1.89556 -0.330561 0.329441 -1.86851 -0.335432 0.0302648 -1.89708 -4.06166 -0.474353 7.00357 -3.89428 -6.23 7.14527 -0.0 0.0 -0.0 2.51226 23.5062 6.16109 -2.10768 -32.5024 61.833 2.05097 -45.4491 0.859045 -29.2833 -1.89007 3.18971 -2.86312 27.0456 -5.14601 -0.0 0.0 -0.0 9.32269 22.7323 -17.67 -23.8987 -1.31022 -61.3184 0.966308 25.5791 -0.219359 -3.06962 0.118218 -0.374076 1.11685 8.77594 -3.81681 0.0 0.0 0.0 11.9478 -11.8671 -3.49311 -16.602 0.320619 2.51868 31.3849 27.8124 -4.34371 -23.9166 0.0 0.0 -0.0 0.0 -0.0 5.99112 34.3678 -3.55837 -39.9265 0.462098 -5.988 32.7515 -12.2218 4.20091 9.23012 -0.0 -0.0 0.0 0.0 0.0 
